<svg id="svg" version="1.1" width="573" height="500" xmlns="http://www.w3.org/2000/svg" xmlns:xlink="http://www.w3.org/1999/xlink" style="display: block;"><g id="svgg"><path id="path0" d="M126.818 43.048 C 126.562 43.304,126.353 44.090,126.353 44.793 C 126.353 45.844,125.792 46.073,123.224 46.073 C 120.490 46.073,120.043 46.288,119.668 47.779 C 119.408 48.817,118.652 49.568,117.735 49.698 C 116.680 49.849,116.164 50.486,116.009 51.832 C 115.842 53.290,115.412 53.752,114.224 53.752 C 112.951 53.752,112.536 54.307,112.001 56.719 C 111.553 58.744,110.845 59.905,109.773 60.375 C 108.831 60.788,108.202 61.677,108.202 62.595 C 108.202 63.652,107.715 64.195,106.632 64.349 C 105.622 64.493,104.981 65.134,104.838 66.143 C 104.619 67.689,104.454 67.714,94.598 67.714 C 83.277 67.714,82.373 67.900,82.373 70.232 C 82.373 71.548,82.004 71.902,80.628 71.902 C 78.999 71.902,78.883 72.135,78.883 75.393 C 78.883 78.731,78.799 78.884,76.963 78.900 C 35.612 79.256,38.761 79.107,38.532 80.718 C 38.359 81.928,37.680 82.288,34.867 82.662 C 31.786 83.070,31.414 83.305,31.414 84.841 C 31.414 86.186,31.052 86.562,29.760 86.562 C 27.552 86.562,27.224 88.753,27.302 102.967 C 27.372 115.550,27.671 117.338,29.866 118.316 C 30.924 118.787,31.414 119.614,31.414 120.933 C 31.414 122.525,31.718 122.862,33.159 122.862 C 34.787 122.862,34.904 123.096,34.904 126.339 C 34.904 129.466,35.080 129.860,36.649 130.254 C 37.754 130.532,38.394 131.185,38.394 132.035 C 38.394 132.773,38.858 133.555,39.424 133.772 C 40.330 134.120,40.330 134.289,39.424 135.196 C 38.858 135.762,38.394 137.459,38.394 138.968 C 38.394 141.428,38.215 141.710,36.649 141.710 C 34.905 141.710,34.904 141.713,34.904 148.646 C 34.904 156.001,35.619 159.162,37.284 159.162 C 37.875 159.162,38.394 159.966,38.523 161.082 C 38.696 162.590,39.155 163.049,40.663 163.223 C 42.155 163.394,42.583 163.812,42.583 165.096 C 42.583 166.363,43.031 166.816,44.503 167.039 L 46.422 167.330 44.503 167.435 C 42.902 167.522,42.581 167.858,42.573 169.459 C 42.557 172.760,41.807 174.432,40.243 174.655 C 38.915 174.845,38.719 175.377,38.533 179.318 C 38.333 183.566,37.373 185.689,35.652 185.689 C 35.148 185.689,34.904 189.763,34.904 198.179 L 34.904 210.669 36.649 211.107 C 37.924 211.427,38.394 212.012,38.394 213.277 C 38.394 214.655,38.748 215.009,40.126 215.009 C 41.391 215.009,41.976 215.479,42.296 216.754 C 42.689 218.318,43.089 218.499,46.149 218.499 C 49.326 218.499,49.564 218.621,49.564 220.244 L 49.564 221.990 60.335 221.990 C 70.975 221.990,71.110 221.970,71.330 220.419 C 71.538 218.959,71.987 218.822,77.717 218.479 C 83.224 218.149,84.021 217.926,85.205 216.385 L 86.531 214.660 86.546 216.579 C 86.559 218.158,86.872 218.499,88.307 218.499 C 89.703 218.499,90.052 218.848,90.052 220.244 C 90.052 221.640,90.401 221.990,91.798 221.990 C 93.173 221.990,93.543 222.344,93.543 223.660 C 93.543 225.894,94.567 226.178,102.618 226.178 C 110.669 226.178,111.693 225.894,111.693 223.660 C 111.693 222.101,111.948 221.990,115.532 221.990 C 119.116 221.990,119.372 222.101,119.372 223.659 C 119.372 224.845,119.863 225.452,121.069 225.754 C 122.113 226.017,122.851 226.773,122.988 227.721 C 123.129 228.695,123.853 229.412,124.956 229.668 C 126.060 229.925,126.784 230.641,126.925 231.617 C 127.077 232.671,127.632 233.159,128.679 233.159 C 129.597 233.159,130.486 233.788,130.899 234.729 C 131.431 235.942,132.264 236.349,134.555 236.515 C 137.137 236.702,137.522 236.941,137.522 238.360 C 137.522 240.247,138.680 240.838,142.380 240.838 C 144.355 240.838,145.296 241.238,146.072 242.408 C 147.030 243.853,147.736 243.998,154.855 244.215 L 162.595 244.450 163.049 242.644 C 163.392 241.275,163.949 240.835,165.346 240.828 C 168.825 240.810,170.332 240.065,170.332 238.362 C 170.332 237.218,170.790 236.681,171.902 236.523 C 173.180 236.342,173.598 235.650,174.143 232.810 C 174.535 230.767,175.403 228.839,176.237 228.161 C 177.578 227.070,177.674 226.120,177.874 211.967 L 178.087 196.932 181.365 196.721 C 184.360 196.528,184.661 196.344,184.863 194.590 C 185.048 192.982,185.417 192.670,187.132 192.670 C 188.851 192.670,189.180 192.390,189.180 190.925 C 189.180 189.529,189.529 189.180,190.925 189.180 L 192.670 189.180 192.670 180.153 C 192.670 171.324,192.704 171.122,194.241 170.904 C 195.365 170.744,195.874 170.135,196.032 168.761 C 196.250 166.872,196.331 166.841,201.111 166.841 C 205.650 166.841,206.012 166.727,206.632 165.096 C 207.098 163.870,207.820 163.351,209.058 163.351 C 210.472 163.351,210.820 163.006,210.820 161.606 C 210.820 160.169,211.160 159.859,212.740 159.851 C 216.015 159.835,217.714 159.082,217.936 157.549 C 218.068 156.646,218.824 155.922,219.895 155.673 C 221.144 155.383,221.703 154.730,221.861 153.376 C 221.989 152.284,222.513 151.483,223.100 151.483 C 224.497 151.483,225.480 148.581,225.480 144.457 C 225.480 141.232,225.593 141.012,227.256 141.012 C 229.830 141.012,229.666 131.039,227.086 130.672 C 225.762 130.483,225.521 129.954,225.340 126.832 C 225.158 123.684,224.926 123.182,223.560 122.988 C 222.423 122.827,221.990 122.296,221.990 121.068 C 221.990 119.737,221.624 119.372,220.293 119.372 C 219.065 119.372,218.535 118.938,218.373 117.801 C 218.213 116.673,217.605 116.168,216.214 116.008 C 215.149 115.886,213.514 115.022,212.581 114.088 C 211.238 112.745,210.158 112.391,207.408 112.391 C 204.135 112.391,203.919 112.279,203.711 110.471 C 203.493 108.571,203.431 108.549,197.806 108.350 C 192.838 108.174,192.076 107.976,191.763 106.779 C 191.566 106.026,190.904 105.410,190.292 105.410 C 189.445 105.410,189.180 104.687,189.180 102.376 C 189.180 98.923,187.469 94.939,185.987 94.939 C 185.314 94.939,184.991 94.146,184.991 92.496 C 184.991 90.355,184.775 90.052,183.246 90.052 C 181.850 90.052,181.501 89.703,181.501 88.307 L 181.501 86.562 174.189 86.562 L 166.877 86.562 166.684 75.567 C 166.495 64.763,166.465 64.569,164.921 64.349 C 163.497 64.147,163.351 63.746,163.351 60.043 C 163.351 55.092,162.899 53.752,161.228 53.752 C 160.356 53.752,159.883 53.145,159.732 51.832 C 159.559 50.325,159.099 49.865,157.592 49.692 C 156.084 49.518,155.672 49.106,155.672 47.772 C 155.672 46.425,155.310 46.073,153.927 46.073 C 152.531 46.073,152.182 45.724,152.182 44.328 L 152.182 42.583 139.732 42.583 C 132.885 42.583,127.074 42.792,126.818 43.048 M328.098 97.622 L 324.956 98.080 324.757 105.236 C 324.575 111.791,324.445 112.391,323.200 112.391 C 322.333 112.391,321.683 113.023,321.404 114.136 C 321.013 115.694,320.606 115.881,317.619 115.881 L 314.273 115.881 313.793 120.019 C 313.496 122.577,312.937 124.301,312.328 124.535 C 310.839 125.106,311.123 128.279,312.740 129.145 C 313.654 129.634,314.136 130.607,314.136 131.962 L 314.136 134.031 319.640 134.031 L 325.144 134.031 325.108 137.347 C 325.061 141.605,325.742 143.627,327.400 144.154 C 328.438 144.483,328.771 145.363,328.935 148.203 L 329.145 151.832 335.951 152.032 L 342.757 152.232 342.757 150.462 C 342.757 149.060,343.105 148.691,344.428 148.691 C 346.319 148.691,346.946 147.546,346.946 144.096 L 346.946 141.710 356.021 141.710 L 365.096 141.710 365.096 132.711 L 365.096 123.712 363.351 123.274 C 360.995 122.682,360.861 119.575,363.176 119.246 C 364.673 119.033,364.756 118.687,364.946 111.867 L 365.145 104.712 363.424 104.712 C 362.170 104.712,361.642 104.285,361.480 103.141 C 361.115 100.575,351.355 100.408,348.965 102.927 C 346.936 105.066,346.248 105.160,346.248 103.299 C 346.248 102.433,345.571 101.628,344.503 101.222 C 343.434 100.815,342.757 100.010,342.757 99.145 C 342.757 98.126,342.299 97.731,341.115 97.731 C 340.211 97.731,337.619 97.603,335.355 97.447 C 333.091 97.291,329.825 97.369,328.098 97.622 M284.405 183.944 C 284.091 185.197,283.496 185.689,282.298 185.689 C 280.982 185.689,280.628 186.059,280.628 187.435 C 280.628 188.831,280.279 189.180,278.883 189.180 C 277.415 189.180,277.138 189.508,277.138 191.242 C 277.138 193.757,274.271 196.859,271.946 196.859 C 270.785 196.859,270.182 197.362,269.874 198.590 L 269.439 200.321 254.964 200.509 C 241.020 200.691,240.481 200.750,240.286 202.115 C 240.174 202.895,239.389 203.837,238.540 204.210 C 236.135 205.266,236.160 218.031,238.569 218.373 C 239.915 218.564,240.140 219.018,240.140 221.549 C 240.140 224.720,241.063 226.178,243.072 226.178 C 243.946 226.178,244.328 226.708,244.328 227.923 C 244.328 229.319,244.677 229.668,246.073 229.668 L 247.818 229.668 247.818 236.998 L 247.818 244.328 246.073 244.328 C 244.423 244.328,244.328 244.538,244.328 248.168 C 244.328 251.503,244.150 252.007,242.973 252.007 C 239.870 252.007,239.424 260.811,242.408 263.162 C 243.920 264.352,244.328 265.256,244.328 267.415 L 244.328 270.157 256.108 270.157 C 269.912 270.157,272.284 269.820,272.828 267.782 C 273.197 266.403,273.244 266.419,273.636 268.063 C 273.997 269.576,274.490 269.836,277.347 270.021 C 280.721 270.239,283.531 272.165,285.182 275.393 C 285.690 276.384,286.739 276.850,288.804 277.001 C 291.380 277.190,291.737 277.429,291.929 279.096 L 292.147 280.977 301.047 281.173 L 309.948 281.368 309.948 279.253 C 309.948 277.462,310.215 277.138,311.693 277.138 L 313.438 277.138 313.438 266.364 L 313.438 255.590 315.358 255.369 C 317.145 255.164,317.292 254.899,317.487 251.520 L 317.697 247.892 320.978 247.681 C 323.771 247.501,324.291 247.236,324.481 245.899 C 324.675 244.539,325.121 244.328,327.812 244.328 C 330.432 244.328,331.042 244.060,331.699 242.619 C 332.127 241.679,333.141 240.815,333.953 240.699 C 334.976 240.553,335.495 239.901,335.648 238.569 C 335.800 237.256,336.272 236.649,337.144 236.649 C 340.082 236.649,340.440 223.133,337.522 222.401 C 336.247 222.081,335.777 221.496,335.777 220.231 C 335.777 218.862,335.421 218.499,334.080 218.499 C 332.852 218.499,332.322 218.065,332.160 216.928 C 331.966 215.563,331.464 215.330,328.316 215.148 C 325.195 214.968,324.665 214.727,324.477 213.403 C 324.276 211.993,323.817 211.851,318.848 211.663 L 313.438 211.460 313.438 209.395 C 313.438 207.658,313.161 207.330,311.693 207.330 C 309.948 207.330,309.948 207.327,309.948 200.394 C 309.948 192.979,309.232 189.878,307.522 189.878 C 306.814 189.878,306.457 189.203,306.457 187.865 C 306.457 186.415,306.052 185.746,305.009 185.474 C 304.213 185.265,303.391 184.443,303.183 183.647 C 302.824 182.276,302.324 182.199,293.824 182.199 L 284.843 182.199 284.405 183.944 " stroke="none" fill="#ffffff" fill-rule="evenodd"></path><path id="path1" d="M126.818 43.048 C 126.562 43.304,126.353 44.090,126.353 44.793 C 126.353 45.844,125.792 46.073,123.224 46.073 C 120.490 46.073,120.043 46.288,119.668 47.779 C 119.408 48.817,118.652 49.568,117.735 49.698 C 116.680 49.849,116.164 50.486,116.009 51.832 C 115.842 53.290,115.412 53.752,114.224 53.752 C 112.951 53.752,112.536 54.307,112.001 56.719 C 111.553 58.744,110.845 59.905,109.773 60.375 C 108.831 60.788,108.202 61.677,108.202 62.595 C 108.202 63.652,107.715 64.195,106.632 64.349 C 105.622 64.493,104.981 65.134,104.838 66.143 C 104.619 67.689,104.454 67.714,94.598 67.714 C 83.277 67.714,82.373 67.900,82.373 70.232 C 82.373 71.548,82.004 71.902,80.628 71.902 C 78.999 71.902,78.883 72.135,78.883 75.393 C 78.883 78.731,78.799 78.884,76.963 78.900 C 35.612 79.256,38.761 79.107,38.532 80.718 C 38.359 81.928,37.680 82.288,34.867 82.662 C 31.786 83.070,31.414 83.305,31.414 84.841 C 31.414 86.186,31.052 86.562,29.760 86.562 C 27.552 86.562,27.224 88.753,27.302 102.967 C 27.372 115.550,27.671 117.338,29.866 118.316 C 30.924 118.787,31.414 119.614,31.414 120.933 C 31.414 122.525,31.718 122.862,33.159 122.862 C 34.787 122.862,34.904 123.096,34.904 126.339 C 34.904 129.466,35.080 129.860,36.649 130.254 C 37.754 130.532,38.394 131.185,38.394 132.035 C 38.394 132.773,38.858 133.555,39.424 133.772 C 40.330 134.120,40.330 134.289,39.424 135.196 C 38.858 135.762,38.394 137.459,38.394 138.968 C 38.394 141.428,38.215 141.710,36.649 141.710 C 34.905 141.710,34.904 141.713,34.904 148.646 C 34.904 156.001,35.619 159.162,37.284 159.162 C 37.875 159.162,38.394 159.966,38.523 161.082 C 38.696 162.590,39.155 163.049,40.663 163.223 C 42.155 163.394,42.583 163.812,42.583 165.096 C 42.583 166.363,43.031 166.816,44.503 167.039 L 46.422 167.330 44.503 167.435 C 42.902 167.522,42.581 167.858,42.573 169.459 C 42.557 172.760,41.807 174.432,40.243 174.655 C 38.915 174.845,38.719 175.377,38.533 179.318 C 38.333 183.566,37.373 185.689,35.652 185.689 C 35.148 185.689,34.904 189.763,34.904 198.179 L 34.904 210.669 36.649 211.107 C 37.924 211.427,38.394 212.012,38.394 213.277 C 38.394 214.655,38.748 215.009,40.126 215.009 C 41.391 215.009,41.976 215.479,42.296 216.754 C 42.689 218.318,43.089 218.499,46.149 218.499 C 49.326 218.499,49.564 218.621,49.564 220.244 L 49.564 221.990 60.335 221.990 C 70.975 221.990,71.110 221.970,71.330 220.419 C 71.538 218.959,71.987 218.822,77.717 218.479 C 83.224 218.149,84.021 217.926,85.205 216.385 L 86.531 214.660 86.546 216.579 C 86.559 218.158,86.872 218.499,88.307 218.499 C 89.703 218.499,90.052 218.848,90.052 220.244 C 90.052 221.640,90.401 221.990,91.798 221.990 C 93.173 221.990,93.543 222.344,93.543 223.660 C 93.543 225.894,94.567 226.178,102.618 226.178 C 110.669 226.178,111.693 225.894,111.693 223.660 C 111.693 222.101,111.948 221.990,115.532 221.990 C 119.116 221.990,119.372 222.101,119.372 223.659 C 119.372 224.845,119.863 225.452,121.069 225.754 C 122.113 226.017,122.851 226.773,122.988 227.721 C 123.129 228.695,123.853 229.412,124.956 229.668 C 126.060 229.925,126.784 230.641,126.925 231.617 C 127.077 232.671,127.632 233.159,128.679 233.159 C 129.597 233.159,130.486 233.788,130.899 234.729 C 131.431 235.942,132.264 236.349,134.555 236.515 C 137.137 236.702,137.522 236.941,137.522 238.360 C 137.522 240.247,138.680 240.838,142.380 240.838 C 144.355 240.838,145.296 241.238,146.072 242.408 C 147.030 243.853,147.736 243.998,154.855 244.215 L 162.595 244.450 163.049 242.644 C 163.392 241.275,163.949 240.835,165.346 240.828 C 168.825 240.810,170.332 240.065,170.332 238.362 C 170.332 237.218,170.790 236.681,171.902 236.523 C 173.180 236.342,173.598 235.650,174.143 232.810 C 174.535 230.767,175.403 228.839,176.237 228.161 C 177.578 227.070,177.674 226.120,177.874 211.967 L 178.087 196.932 181.365 196.721 C 184.360 196.528,184.661 196.344,184.863 194.590 C 185.048 192.982,185.417 192.670,187.132 192.670 C 188.851 192.670,189.180 192.390,189.180 190.925 C 189.180 189.529,189.529 189.180,190.925 189.180 L 192.670 189.180 192.670 180.153 C 192.670 171.324,192.704 171.122,194.241 170.904 C 195.365 170.744,195.874 170.135,196.032 168.761 C 196.250 166.872,196.331 166.841,201.111 166.841 C 205.650 166.841,206.012 166.727,206.632 165.096 C 207.098 163.870,207.820 163.351,209.058 163.351 C 210.472 163.351,210.820 163.006,210.820 161.606 C 210.820 160.169,211.160 159.859,212.740 159.851 C 216.015 159.835,217.714 159.082,217.936 157.549 C 218.068 156.646,218.824 155.922,219.895 155.673 C 221.144 155.383,221.703 154.730,221.861 153.376 C 221.989 152.284,222.513 151.483,223.100 151.483 C 224.497 151.483,225.480 148.581,225.480 144.457 C 225.480 141.232,225.593 141.012,227.256 141.012 C 229.830 141.012,229.666 131.039,227.086 130.672 C 225.762 130.483,225.521 129.954,225.340 126.832 C 225.158 123.684,224.926 123.182,223.560 122.988 C 222.423 122.827,221.990 122.296,221.990 121.068 C 221.990 119.737,221.624 119.372,220.293 119.372 C 219.065 119.372,218.535 118.938,218.373 117.801 C 218.213 116.673,217.605 116.168,216.214 116.008 C 215.149 115.886,213.514 115.022,212.581 114.088 C 211.238 112.745,210.158 112.391,207.408 112.391 C 204.135 112.391,203.919 112.279,203.711 110.471 C 203.493 108.571,203.431 108.549,197.806 108.350 C 192.838 108.174,192.076 107.976,191.763 106.779 C 191.566 106.026,190.904 105.410,190.292 105.410 C 189.445 105.410,189.180 104.687,189.180 102.376 C 189.180 98.923,187.469 94.939,185.987 94.939 C 185.314 94.939,184.991 94.146,184.991 92.496 C 184.991 90.355,184.775 90.052,183.246 90.052 C 181.850 90.052,181.501 89.703,181.501 88.307 L 181.501 86.562 174.189 86.562 L 166.877 86.562 166.684 75.567 C 166.495 64.763,166.465 64.569,164.921 64.349 C 163.497 64.147,163.351 63.746,163.351 60.043 C 163.351 55.092,162.899 53.752,161.228 53.752 C 160.356 53.752,159.883 53.145,159.732 51.832 C 159.559 50.325,159.099 49.865,157.592 49.692 C 156.084 49.518,155.672 49.106,155.672 47.772 C 155.672 46.425,155.310 46.073,153.927 46.073 C 152.531 46.073,152.182 45.724,152.182 44.328 L 152.182 42.583 139.732 42.583 C 132.885 42.583,127.074 42.792,126.818 43.048 M328.098 97.622 L 324.956 98.080 324.757 105.236 C 324.575 111.791,324.445 112.391,323.200 112.391 C 322.333 112.391,321.683 113.023,321.404 114.136 C 321.013 115.694,320.606 115.881,317.619 115.881 L 314.273 115.881 313.793 120.019 C 313.496 122.577,312.937 124.301,312.328 124.535 C 310.839 125.106,311.123 128.279,312.740 129.145 C 313.654 129.634,314.136 130.607,314.136 131.962 L 314.136 134.031 319.640 134.031 L 325.144 134.031 325.108 137.347 C 325.061 141.605,325.742 143.627,327.400 144.154 C 328.438 144.483,328.771 145.363,328.935 148.203 L 329.145 151.832 335.951 152.032 L 342.757 152.232 342.757 150.462 C 342.757 149.060,343.105 148.691,344.428 148.691 C 346.319 148.691,346.946 147.546,346.946 144.096 L 346.946 141.710 356.021 141.710 L 365.096 141.710 365.096 132.711 L 365.096 123.712 363.351 123.274 C 360.995 122.682,360.861 119.575,363.176 119.246 C 364.673 119.033,364.756 118.687,364.946 111.867 L 365.145 104.712 363.424 104.712 C 362.170 104.712,361.642 104.285,361.480 103.141 C 361.115 100.575,351.355 100.408,348.965 102.927 C 346.936 105.066,346.248 105.160,346.248 103.299 C 346.248 102.433,345.571 101.628,344.503 101.222 C 343.434 100.815,342.757 100.010,342.757 99.145 C 342.757 98.126,342.299 97.731,341.115 97.731 C 340.211 97.731,337.619 97.603,335.355 97.447 C 333.091 97.291,329.825 97.369,328.098 97.622 M284.405 183.944 C 284.091 185.197,283.496 185.689,282.298 185.689 C 280.982 185.689,280.628 186.059,280.628 187.435 C 280.628 188.831,280.279 189.180,278.883 189.180 C 277.415 189.180,277.138 189.508,277.138 191.242 C 277.138 193.757,274.271 196.859,271.946 196.859 C 270.785 196.859,270.182 197.362,269.874 198.590 L 269.439 200.321 254.964 200.509 C 241.020 200.691,240.481 200.750,240.286 202.115 C 240.174 202.895,239.389 203.837,238.540 204.210 C 236.135 205.266,236.160 218.031,238.569 218.373 C 239.915 218.564,240.140 219.018,240.140 221.549 C 240.140 224.720,241.063 226.178,243.072 226.178 C 243.946 226.178,244.328 226.708,244.328 227.923 C 244.328 229.319,244.677 229.668,246.073 229.668 L 247.818 229.668 247.818 236.998 L 247.818 244.328 246.073 244.328 C 244.423 244.328,244.328 244.538,244.328 248.168 C 244.328 251.503,244.150 252.007,242.973 252.007 C 239.870 252.007,239.424 260.811,242.408 263.162 C 243.920 264.352,244.328 265.256,244.328 267.415 L 244.328 270.157 256.108 270.157 C 269.912 270.157,272.284 269.820,272.828 267.782 C 273.197 266.403,273.244 266.419,273.636 268.063 C 273.997 269.576,274.490 269.836,277.347 270.021 C 280.721 270.239,283.531 272.165,285.182 275.393 C 285.690 276.384,286.739 276.850,288.804 277.001 C 291.380 277.190,291.737 277.429,291.929 279.096 L 292.147 280.977 301.047 281.173 L 309.948 281.368 309.948 279.253 C 309.948 277.462,310.215 277.138,311.693 277.138 L 313.438 277.138 313.438 266.364 L 313.438 255.590 315.358 255.369 C 317.145 255.164,317.292 254.899,317.487 251.520 L 317.697 247.892 320.978 247.681 C 323.771 247.501,324.291 247.236,324.481 245.899 C 324.675 244.539,325.121 244.328,327.812 244.328 C 330.432 244.328,331.042 244.060,331.699 242.619 C 332.127 241.679,333.141 240.815,333.953 240.699 C 334.976 240.553,335.495 239.901,335.648 238.569 C 335.800 237.256,336.272 236.649,337.144 236.649 C 340.082 236.649,340.440 223.133,337.522 222.401 C 336.247 222.081,335.777 221.496,335.777 220.231 C 335.777 218.862,335.421 218.499,334.080 218.499 C 332.852 218.499,332.322 218.065,332.160 216.928 C 331.966 215.563,331.464 215.330,328.316 215.148 C 325.195 214.968,324.665 214.727,324.477 213.403 C 324.276 211.993,323.817 211.851,318.848 211.663 L 313.438 211.460 313.438 209.395 C 313.438 207.658,313.161 207.330,311.693 207.330 C 309.948 207.330,309.948 207.327,309.948 200.394 C 309.948 192.979,309.232 189.878,307.522 189.878 C 306.814 189.878,306.457 189.203,306.457 187.865 C 306.457 186.415,306.052 185.746,305.009 185.474 C 304.213 185.265,303.391 184.443,303.183 183.647 C 302.824 182.276,302.324 182.199,293.824 182.199 L 284.843 182.199 284.405 183.944 " stroke="none" fill="#ffffff" fill-rule="evenodd"></path><path id="path2" d="M126.818 43.048 C 126.562 43.304,126.353 44.090,126.353 44.793 C 126.353 45.844,125.792 46.073,123.224 46.073 C 120.490 46.073,120.043 46.288,119.668 47.779 C 119.408 48.817,118.652 49.568,117.735 49.698 C 116.680 49.849,116.164 50.486,116.009 51.832 C 115.842 53.290,115.412 53.752,114.224 53.752 C 112.951 53.752,112.536 54.307,112.001 56.719 C 111.553 58.744,110.845 59.905,109.773 60.375 C 108.831 60.788,108.202 61.677,108.202 62.595 C 108.202 63.652,107.715 64.195,106.632 64.349 C 105.622 64.493,104.981 65.134,104.838 66.143 C 104.619 67.689,104.454 67.714,94.598 67.714 C 83.277 67.714,82.373 67.900,82.373 70.232 C 82.373 71.548,82.004 71.902,80.628 71.902 C 78.999 71.902,78.883 72.135,78.883 75.393 C 78.883 78.731,78.799 78.884,76.963 78.900 C 35.612 79.256,38.761 79.107,38.532 80.718 C 38.359 81.928,37.680 82.288,34.867 82.662 C 31.786 83.070,31.414 83.305,31.414 84.841 C 31.414 86.186,31.052 86.562,29.760 86.562 C 27.552 86.562,27.224 88.753,27.302 102.967 C 27.372 115.550,27.671 117.338,29.866 118.316 C 30.924 118.787,31.414 119.614,31.414 120.933 C 31.414 122.525,31.718 122.862,33.159 122.862 C 34.787 122.862,34.904 123.096,34.904 126.339 C 34.904 129.466,35.080 129.860,36.649 130.254 C 37.754 130.532,38.394 131.185,38.394 132.035 C 38.394 132.773,38.858 133.555,39.424 133.772 C 40.330 134.120,40.330 134.289,39.424 135.196 C 38.858 135.762,38.394 137.459,38.394 138.968 C 38.394 141.428,38.215 141.710,36.649 141.710 C 34.905 141.710,34.904 141.713,34.904 148.646 C 34.904 156.001,35.619 159.162,37.284 159.162 C 37.875 159.162,38.394 159.966,38.523 161.082 C 38.696 162.590,39.155 163.049,40.663 163.223 C 42.155 163.394,42.583 163.812,42.583 165.096 C 42.583 166.363,43.031 166.816,44.503 167.039 L 46.422 167.330 44.503 167.435 C 42.902 167.522,42.581 167.858,42.573 169.459 C 42.557 172.760,41.807 174.432,40.243 174.655 C 38.915 174.845,38.719 175.377,38.533 179.318 C 38.333 183.566,37.373 185.689,35.652 185.689 C 35.148 185.689,34.904 189.763,34.904 198.179 L 34.904 210.669 36.649 211.107 C 37.924 211.427,38.394 212.012,38.394 213.277 C 38.394 214.655,38.748 215.009,40.126 215.009 C 41.391 215.009,41.976 215.479,42.296 216.754 C 42.689 218.318,43.089 218.499,46.149 218.499 C 49.326 218.499,49.564 218.621,49.564 220.244 L 49.564 221.990 60.335 221.990 C 70.975 221.990,71.110 221.970,71.330 220.419 C 71.538 218.959,71.987 218.822,77.717 218.479 C 83.224 218.149,84.021 217.926,85.205 216.385 L 86.531 214.660 86.546 216.579 C 86.559 218.158,86.872 218.499,88.307 218.499 C 89.703 218.499,90.052 218.848,90.052 220.244 C 90.052 221.640,90.401 221.990,91.798 221.990 C 93.173 221.990,93.543 222.344,93.543 223.660 C 93.543 225.894,94.567 226.178,102.618 226.178 C 110.669 226.178,111.693 225.894,111.693 223.660 C 111.693 222.101,111.948 221.990,115.532 221.990 C 119.116 221.990,119.372 222.101,119.372 223.659 C 119.372 224.845,119.863 225.452,121.069 225.754 C 122.113 226.017,122.851 226.773,122.988 227.721 C 123.129 228.695,123.853 229.412,124.956 229.668 C 126.060 229.925,126.784 230.641,126.925 231.617 C 127.077 232.671,127.632 233.159,128.679 233.159 C 129.597 233.159,130.486 233.788,130.899 234.729 C 131.431 235.942,132.264 236.349,134.555 236.515 C 137.137 236.702,137.522 236.941,137.522 238.360 C 137.522 240.247,138.680 240.838,142.380 240.838 C 144.355 240.838,145.296 241.238,146.072 242.408 C 147.030 243.853,147.736 243.998,154.855 244.215 L 162.595 244.450 163.049 242.644 C 163.392 241.275,163.949 240.835,165.346 240.828 C 168.825 240.810,170.332 240.065,170.332 238.362 C 170.332 237.218,170.790 236.681,171.902 236.523 C 173.180 236.342,173.598 235.650,174.143 232.810 C 174.535 230.767,175.403 228.839,176.237 228.161 C 177.578 227.070,177.674 226.120,177.874 211.967 L 178.087 196.932 181.365 196.721 C 184.360 196.528,184.661 196.344,184.863 194.590 C 185.048 192.982,185.417 192.670,187.132 192.670 C 188.851 192.670,189.180 192.390,189.180 190.925 C 189.180 189.529,189.529 189.180,190.925 189.180 L 192.670 189.180 192.670 180.153 C 192.670 171.324,192.704 171.122,194.241 170.904 C 195.365 170.744,195.874 170.135,196.032 168.761 C 196.250 166.872,196.331 166.841,201.111 166.841 C 205.650 166.841,206.012 166.727,206.632 165.096 C 207.098 163.870,207.820 163.351,209.058 163.351 C 210.472 163.351,210.820 163.006,210.820 161.606 C 210.820 160.169,211.160 159.859,212.740 159.851 C 216.015 159.835,217.714 159.082,217.936 157.549 C 218.068 156.646,218.824 155.922,219.895 155.673 C 221.144 155.383,221.703 154.730,221.861 153.376 C 221.989 152.284,222.513 151.483,223.100 151.483 C 224.497 151.483,225.480 148.581,225.480 144.457 C 225.480 141.232,225.593 141.012,227.256 141.012 C 229.830 141.012,229.666 131.039,227.086 130.672 C 225.762 130.483,225.521 129.954,225.340 126.832 C 225.158 123.684,224.926 123.182,223.560 122.988 C 222.423 122.827,221.990 122.296,221.990 121.068 C 221.990 119.737,221.624 119.372,220.293 119.372 C 219.065 119.372,218.535 118.938,218.373 117.801 C 218.213 116.673,217.605 116.168,216.214 116.008 C 215.149 115.886,213.514 115.022,212.581 114.088 C 211.238 112.745,210.158 112.391,207.408 112.391 C 204.135 112.391,203.919 112.279,203.711 110.471 C 203.493 108.571,203.431 108.549,197.806 108.350 C 192.838 108.174,192.076 107.976,191.763 106.779 C 191.566 106.026,190.904 105.410,190.292 105.410 C 189.445 105.410,189.180 104.687,189.180 102.376 C 189.180 98.923,187.469 94.939,185.987 94.939 C 185.314 94.939,184.991 94.146,184.991 92.496 C 184.991 90.355,184.775 90.052,183.246 90.052 C 181.850 90.052,181.501 89.703,181.501 88.307 L 181.501 86.562 174.189 86.562 L 166.877 86.562 166.684 75.567 C 166.495 64.763,166.465 64.569,164.921 64.349 C 163.497 64.147,163.351 63.746,163.351 60.043 C 163.351 55.092,162.899 53.752,161.228 53.752 C 160.356 53.752,159.883 53.145,159.732 51.832 C 159.559 50.325,159.099 49.865,157.592 49.692 C 156.084 49.518,155.672 49.106,155.672 47.772 C 155.672 46.425,155.310 46.073,153.927 46.073 C 152.531 46.073,152.182 45.724,152.182 44.328 L 152.182 42.583 139.732 42.583 C 132.885 42.583,127.074 42.792,126.818 43.048 M328.098 97.622 L 324.956 98.080 324.757 105.236 C 324.575 111.791,324.445 112.391,323.200 112.391 C 322.333 112.391,321.683 113.023,321.404 114.136 C 321.013 115.694,320.606 115.881,317.619 115.881 L 314.273 115.881 313.793 120.019 C 313.496 122.577,312.937 124.301,312.328 124.535 C 310.839 125.106,311.123 128.279,312.740 129.145 C 313.654 129.634,314.136 130.607,314.136 131.962 L 314.136 134.031 319.640 134.031 L 325.144 134.031 325.108 137.347 C 325.061 141.605,325.742 143.627,327.400 144.154 C 328.438 144.483,328.771 145.363,328.935 148.203 L 329.145 151.832 335.951 152.032 L 342.757 152.232 342.757 150.462 C 342.757 149.060,343.105 148.691,344.428 148.691 C 346.319 148.691,346.946 147.546,346.946 144.096 L 346.946 141.710 356.021 141.710 L 365.096 141.710 365.096 132.711 L 365.096 123.712 363.351 123.274 C 360.995 122.682,360.861 119.575,363.176 119.246 C 364.673 119.033,364.756 118.687,364.946 111.867 L 365.145 104.712 363.424 104.712 C 362.170 104.712,361.642 104.285,361.480 103.141 C 361.115 100.575,351.355 100.408,348.965 102.927 C 346.936 105.066,346.248 105.160,346.248 103.299 C 346.248 102.433,345.571 101.628,344.503 101.222 C 343.434 100.815,342.757 100.010,342.757 99.145 C 342.757 98.126,342.299 97.731,341.115 97.731 C 340.211 97.731,337.619 97.603,335.355 97.447 C 333.091 97.291,329.825 97.369,328.098 97.622 M284.405 183.944 C 284.091 185.197,283.496 185.689,282.298 185.689 C 280.982 185.689,280.628 186.059,280.628 187.435 C 280.628 188.831,280.279 189.180,278.883 189.180 C 277.415 189.180,277.138 189.508,277.138 191.242 C 277.138 193.757,274.271 196.859,271.946 196.859 C 270.785 196.859,270.182 197.362,269.874 198.590 L 269.439 200.321 254.964 200.509 C 241.020 200.691,240.481 200.750,240.286 202.115 C 240.174 202.895,239.389 203.837,238.540 204.210 C 236.135 205.266,236.160 218.031,238.569 218.373 C 239.915 218.564,240.140 219.018,240.140 221.549 C 240.140 224.720,241.063 226.178,243.072 226.178 C 243.946 226.178,244.328 226.708,244.328 227.923 C 244.328 229.319,244.677 229.668,246.073 229.668 L 247.818 229.668 247.818 236.998 L 247.818 244.328 246.073 244.328 C 244.423 244.328,244.328 244.538,244.328 248.168 C 244.328 251.503,244.150 252.007,242.973 252.007 C 239.870 252.007,239.424 260.811,242.408 263.162 C 243.920 264.352,244.328 265.256,244.328 267.415 L 244.328 270.157 256.108 270.157 C 269.912 270.157,272.284 269.820,272.828 267.782 C 273.197 266.403,273.244 266.419,273.636 268.063 C 273.997 269.576,274.490 269.836,277.347 270.021 C 280.721 270.239,283.531 272.165,285.182 275.393 C 285.690 276.384,286.739 276.850,288.804 277.001 C 291.380 277.190,291.737 277.429,291.929 279.096 L 292.147 280.977 301.047 281.173 L 309.948 281.368 309.948 279.253 C 309.948 277.462,310.215 277.138,311.693 277.138 L 313.438 277.138 313.438 266.364 L 313.438 255.590 315.358 255.369 C 317.145 255.164,317.292 254.899,317.487 251.520 L 317.697 247.892 320.978 247.681 C 323.771 247.501,324.291 247.236,324.481 245.899 C 324.675 244.539,325.121 244.328,327.812 244.328 C 330.432 244.328,331.042 244.060,331.699 242.619 C 332.127 241.679,333.141 240.815,333.953 240.699 C 334.976 240.553,335.495 239.901,335.648 238.569 C 335.800 237.256,336.272 236.649,337.144 236.649 C 340.082 236.649,340.440 223.133,337.522 222.401 C 336.247 222.081,335.777 221.496,335.777 220.231 C 335.777 218.862,335.421 218.499,334.080 218.499 C 332.852 218.499,332.322 218.065,332.160 216.928 C 331.966 215.563,331.464 215.330,328.316 215.148 C 325.195 214.968,324.665 214.727,324.477 213.403 C 324.276 211.993,323.817 211.851,318.848 211.663 L 313.438 211.460 313.438 209.395 C 313.438 207.658,313.161 207.330,311.693 207.330 C 309.948 207.330,309.948 207.327,309.948 200.394 C 309.948 192.979,309.232 189.878,307.522 189.878 C 306.814 189.878,306.457 189.203,306.457 187.865 C 306.457 186.415,306.052 185.746,305.009 185.474 C 304.213 185.265,303.391 184.443,303.183 183.647 C 302.824 182.276,302.324 182.199,293.824 182.199 L 284.843 182.199 284.405 183.944 " stroke="none" fill="#ffffff" fill-rule="evenodd"></path><path id="path3" d="M126.818 43.048 C 126.562 43.304,126.353 44.090,126.353 44.793 C 126.353 45.844,125.792 46.073,123.224 46.073 C 120.490 46.073,120.043 46.288,119.668 47.779 C 119.408 48.817,118.652 49.568,117.735 49.698 C 116.680 49.849,116.164 50.486,116.009 51.832 C 115.842 53.290,115.412 53.752,114.224 53.752 C 112.951 53.752,112.536 54.307,112.001 56.719 C 111.553 58.744,110.845 59.905,109.773 60.375 C 108.831 60.788,108.202 61.677,108.202 62.595 C 108.202 63.652,107.715 64.195,106.632 64.349 C 105.622 64.493,104.981 65.134,104.838 66.143 C 104.619 67.689,104.454 67.714,94.598 67.714 C 83.277 67.714,82.373 67.900,82.373 70.232 C 82.373 71.548,82.004 71.902,80.628 71.902 C 78.999 71.902,78.883 72.135,78.883 75.393 C 78.883 78.731,78.799 78.884,76.963 78.900 C 35.612 79.256,38.761 79.107,38.532 80.718 C 38.359 81.928,37.680 82.288,34.867 82.662 C 31.786 83.070,31.414 83.305,31.414 84.841 C 31.414 86.186,31.052 86.562,29.760 86.562 C 27.552 86.562,27.224 88.753,27.302 102.967 C 27.372 115.550,27.671 117.338,29.866 118.316 C 30.924 118.787,31.414 119.614,31.414 120.933 C 31.414 122.525,31.718 122.862,33.159 122.862 C 34.787 122.862,34.904 123.096,34.904 126.339 C 34.904 129.466,35.080 129.860,36.649 130.254 C 37.754 130.532,38.394 131.185,38.394 132.035 C 38.394 132.773,38.858 133.555,39.424 133.772 C 40.330 134.120,40.330 134.289,39.424 135.196 C 38.858 135.762,38.394 137.459,38.394 138.968 C 38.394 141.428,38.215 141.710,36.649 141.710 C 34.905 141.710,34.904 141.713,34.904 148.646 C 34.904 156.001,35.619 159.162,37.284 159.162 C 37.875 159.162,38.394 159.966,38.523 161.082 C 38.696 162.590,39.155 163.049,40.663 163.223 C 42.155 163.394,42.583 163.812,42.583 165.096 C 42.583 166.363,43.031 166.816,44.503 167.039 L 46.422 167.330 44.503 167.435 C 42.902 167.522,42.581 167.858,42.573 169.459 C 42.557 172.760,41.807 174.432,40.243 174.655 C 38.915 174.845,38.719 175.377,38.533 179.318 C 38.333 183.566,37.373 185.689,35.652 185.689 C 35.148 185.689,34.904 189.763,34.904 198.179 L 34.904 210.669 36.649 211.107 C 37.924 211.427,38.394 212.012,38.394 213.277 C 38.394 214.655,38.748 215.009,40.126 215.009 C 41.391 215.009,41.976 215.479,42.296 216.754 C 42.689 218.318,43.089 218.499,46.149 218.499 C 49.326 218.499,49.564 218.621,49.564 220.244 L 49.564 221.990 60.335 221.990 C 70.975 221.990,71.110 221.970,71.330 220.419 C 71.538 218.959,71.987 218.822,77.717 218.479 C 83.224 218.149,84.021 217.926,85.205 216.385 L 86.531 214.660 86.546 216.579 C 86.559 218.158,86.872 218.499,88.307 218.499 C 89.703 218.499,90.052 218.848,90.052 220.244 C 90.052 221.640,90.401 221.990,91.798 221.990 C 93.173 221.990,93.543 222.344,93.543 223.660 C 93.543 225.894,94.567 226.178,102.618 226.178 C 110.669 226.178,111.693 225.894,111.693 223.660 C 111.693 222.101,111.948 221.990,115.532 221.990 C 119.116 221.990,119.372 222.101,119.372 223.659 C 119.372 224.845,119.863 225.452,121.069 225.754 C 122.113 226.017,122.851 226.773,122.988 227.721 C 123.129 228.695,123.853 229.412,124.956 229.668 C 126.060 229.925,126.784 230.641,126.925 231.617 C 127.077 232.671,127.632 233.159,128.679 233.159 C 129.597 233.159,130.486 233.788,130.899 234.729 C 131.431 235.942,132.264 236.349,134.555 236.515 C 137.137 236.702,137.522 236.941,137.522 238.360 C 137.522 240.247,138.680 240.838,142.380 240.838 C 144.355 240.838,145.296 241.238,146.072 242.408 C 147.030 243.853,147.736 243.998,154.855 244.215 L 162.595 244.450 163.049 242.644 C 163.392 241.275,163.949 240.835,165.346 240.828 C 168.825 240.810,170.332 240.065,170.332 238.362 C 170.332 237.218,170.790 236.681,171.902 236.523 C 173.180 236.342,173.598 235.650,174.143 232.810 C 174.535 230.767,175.403 228.839,176.237 228.161 C 177.578 227.070,177.674 226.120,177.874 211.967 L 178.087 196.932 181.365 196.721 C 184.360 196.528,184.661 196.344,184.863 194.590 C 185.048 192.982,185.417 192.670,187.132 192.670 C 188.851 192.670,189.180 192.390,189.180 190.925 C 189.180 189.529,189.529 189.180,190.925 189.180 L 192.670 189.180 192.670 180.153 C 192.670 171.324,192.704 171.122,194.241 170.904 C 195.365 170.744,195.874 170.135,196.032 168.761 C 196.250 166.872,196.331 166.841,201.111 166.841 C 205.650 166.841,206.012 166.727,206.632 165.096 C 207.098 163.870,207.820 163.351,209.058 163.351 C 210.472 163.351,210.820 163.006,210.820 161.606 C 210.820 160.169,211.160 159.859,212.740 159.851 C 216.015 159.835,217.714 159.082,217.936 157.549 C 218.068 156.646,218.824 155.922,219.895 155.673 C 221.144 155.383,221.703 154.730,221.861 153.376 C 221.989 152.284,222.513 151.483,223.100 151.483 C 224.497 151.483,225.480 148.581,225.480 144.457 C 225.480 141.232,225.593 141.012,227.256 141.012 C 229.830 141.012,229.666 131.039,227.086 130.672 C 225.762 130.483,225.521 129.954,225.340 126.832 C 225.158 123.684,224.926 123.182,223.560 122.988 C 222.423 122.827,221.990 122.296,221.990 121.068 C 221.990 119.737,221.624 119.372,220.293 119.372 C 219.065 119.372,218.535 118.938,218.373 117.801 C 218.213 116.673,217.605 116.168,216.214 116.008 C 215.149 115.886,213.514 115.022,212.581 114.088 C 211.238 112.745,210.158 112.391,207.408 112.391 C 204.135 112.391,203.919 112.279,203.711 110.471 C 203.493 108.571,203.431 108.549,197.806 108.350 C 192.838 108.174,192.076 107.976,191.763 106.779 C 191.566 106.026,190.904 105.410,190.292 105.410 C 189.445 105.410,189.180 104.687,189.180 102.376 C 189.180 98.923,187.469 94.939,185.987 94.939 C 185.314 94.939,184.991 94.146,184.991 92.496 C 184.991 90.355,184.775 90.052,183.246 90.052 C 181.850 90.052,181.501 89.703,181.501 88.307 L 181.501 86.562 174.189 86.562 L 166.877 86.562 166.684 75.567 C 166.495 64.763,166.465 64.569,164.921 64.349 C 163.497 64.147,163.351 63.746,163.351 60.043 C 163.351 55.092,162.899 53.752,161.228 53.752 C 160.356 53.752,159.883 53.145,159.732 51.832 C 159.559 50.325,159.099 49.865,157.592 49.692 C 156.084 49.518,155.672 49.106,155.672 47.772 C 155.672 46.425,155.310 46.073,153.927 46.073 C 152.531 46.073,152.182 45.724,152.182 44.328 L 152.182 42.583 139.732 42.583 C 132.885 42.583,127.074 42.792,126.818 43.048 M328.098 97.622 L 324.956 98.080 324.757 105.236 C 324.575 111.791,324.445 112.391,323.200 112.391 C 322.333 112.391,321.683 113.023,321.404 114.136 C 321.013 115.694,320.606 115.881,317.619 115.881 L 314.273 115.881 313.793 120.019 C 313.496 122.577,312.937 124.301,312.328 124.535 C 310.839 125.106,311.123 128.279,312.740 129.145 C 313.654 129.634,314.136 130.607,314.136 131.962 L 314.136 134.031 319.640 134.031 L 325.144 134.031 325.108 137.347 C 325.061 141.605,325.742 143.627,327.400 144.154 C 328.438 144.483,328.771 145.363,328.935 148.203 L 329.145 151.832 335.951 152.032 L 342.757 152.232 342.757 150.462 C 342.757 149.060,343.105 148.691,344.428 148.691 C 346.319 148.691,346.946 147.546,346.946 144.096 L 346.946 141.710 356.021 141.710 L 365.096 141.710 365.096 132.711 L 365.096 123.712 363.351 123.274 C 360.995 122.682,360.861 119.575,363.176 119.246 C 364.673 119.033,364.756 118.687,364.946 111.867 L 365.145 104.712 363.424 104.712 C 362.170 104.712,361.642 104.285,361.480 103.141 C 361.115 100.575,351.355 100.408,348.965 102.927 C 346.936 105.066,346.248 105.160,346.248 103.299 C 346.248 102.433,345.571 101.628,344.503 101.222 C 343.434 100.815,342.757 100.010,342.757 99.145 C 342.757 98.126,342.299 97.731,341.115 97.731 C 340.211 97.731,337.619 97.603,335.355 97.447 C 333.091 97.291,329.825 97.369,328.098 97.622 M284.405 183.944 C 284.091 185.197,283.496 185.689,282.298 185.689 C 280.982 185.689,280.628 186.059,280.628 187.435 C 280.628 188.831,280.279 189.180,278.883 189.180 C 277.415 189.180,277.138 189.508,277.138 191.242 C 277.138 193.757,274.271 196.859,271.946 196.859 C 270.785 196.859,270.182 197.362,269.874 198.590 L 269.439 200.321 254.964 200.509 C 241.020 200.691,240.481 200.750,240.286 202.115 C 240.174 202.895,239.389 203.837,238.540 204.210 C 236.135 205.266,236.160 218.031,238.569 218.373 C 239.915 218.564,240.140 219.018,240.140 221.549 C 240.140 224.720,241.063 226.178,243.072 226.178 C 243.946 226.178,244.328 226.708,244.328 227.923 C 244.328 229.319,244.677 229.668,246.073 229.668 L 247.818 229.668 247.818 236.998 L 247.818 244.328 246.073 244.328 C 244.423 244.328,244.328 244.538,244.328 248.168 C 244.328 251.503,244.150 252.007,242.973 252.007 C 239.870 252.007,239.424 260.811,242.408 263.162 C 243.920 264.352,244.328 265.256,244.328 267.415 L 244.328 270.157 256.108 270.157 C 269.912 270.157,272.284 269.820,272.828 267.782 C 273.197 266.403,273.244 266.419,273.636 268.063 C 273.997 269.576,274.490 269.836,277.347 270.021 C 280.721 270.239,283.531 272.165,285.182 275.393 C 285.690 276.384,286.739 276.850,288.804 277.001 C 291.380 277.190,291.737 277.429,291.929 279.096 L 292.147 280.977 301.047 281.173 L 309.948 281.368 309.948 279.253 C 309.948 277.462,310.215 277.138,311.693 277.138 L 313.438 277.138 313.438 266.364 L 313.438 255.590 315.358 255.369 C 317.145 255.164,317.292 254.899,317.487 251.520 L 317.697 247.892 320.978 247.681 C 323.771 247.501,324.291 247.236,324.481 245.899 C 324.675 244.539,325.121 244.328,327.812 244.328 C 330.432 244.328,331.042 244.060,331.699 242.619 C 332.127 241.679,333.141 240.815,333.953 240.699 C 334.976 240.553,335.495 239.901,335.648 238.569 C 335.800 237.256,336.272 236.649,337.144 236.649 C 340.082 236.649,340.440 223.133,337.522 222.401 C 336.247 222.081,335.777 221.496,335.777 220.231 C 335.777 218.862,335.421 218.499,334.080 218.499 C 332.852 218.499,332.322 218.065,332.160 216.928 C 331.966 215.563,331.464 215.330,328.316 215.148 C 325.195 214.968,324.665 214.727,324.477 213.403 C 324.276 211.993,323.817 211.851,318.848 211.663 L 313.438 211.460 313.438 209.395 C 313.438 207.658,313.161 207.330,311.693 207.330 C 309.948 207.330,309.948 207.327,309.948 200.394 C 309.948 192.979,309.232 189.878,307.522 189.878 C 306.814 189.878,306.457 189.203,306.457 187.865 C 306.457 186.415,306.052 185.746,305.009 185.474 C 304.213 185.265,303.391 184.443,303.183 183.647 C 302.824 182.276,302.324 182.199,293.824 182.199 L 284.843 182.199 284.405 183.944 " stroke="none" fill="#ffffff" fill-rule="evenodd"></path><path id="path4" d="M126.818 43.048 C 126.562 43.304,126.353 44.090,126.353 44.793 C 126.353 45.844,125.792 46.073,123.224 46.073 C 120.490 46.073,120.043 46.288,119.668 47.779 C 119.408 48.817,118.652 49.568,117.735 49.698 C 116.680 49.849,116.164 50.486,116.009 51.832 C 115.842 53.290,115.412 53.752,114.224 53.752 C 112.951 53.752,112.536 54.307,112.001 56.719 C 111.553 58.744,110.845 59.905,109.773 60.375 C 108.831 60.788,108.202 61.677,108.202 62.595 C 108.202 63.652,107.715 64.195,106.632 64.349 C 105.622 64.493,104.981 65.134,104.838 66.143 C 104.619 67.689,104.454 67.714,94.598 67.714 C 83.277 67.714,82.373 67.900,82.373 70.232 C 82.373 71.548,82.004 71.902,80.628 71.902 C 78.999 71.902,78.883 72.135,78.883 75.393 C 78.883 78.731,78.799 78.884,76.963 78.900 C 35.612 79.256,38.761 79.107,38.532 80.718 C 38.359 81.928,37.680 82.288,34.867 82.662 C 31.786 83.070,31.414 83.305,31.414 84.841 C 31.414 86.186,31.052 86.562,29.760 86.562 C 27.552 86.562,27.224 88.753,27.302 102.967 C 27.372 115.550,27.671 117.338,29.866 118.316 C 30.924 118.787,31.414 119.614,31.414 120.933 C 31.414 122.525,31.718 122.862,33.159 122.862 C 34.787 122.862,34.904 123.096,34.904 126.339 C 34.904 129.466,35.080 129.860,36.649 130.254 C 37.754 130.532,38.394 131.185,38.394 132.035 C 38.394 132.773,38.858 133.555,39.424 133.772 C 40.330 134.120,40.330 134.289,39.424 135.196 C 38.858 135.762,38.394 137.459,38.394 138.968 C 38.394 141.428,38.215 141.710,36.649 141.710 C 34.905 141.710,34.904 141.713,34.904 148.646 C 34.904 156.001,35.619 159.162,37.284 159.162 C 37.875 159.162,38.394 159.966,38.523 161.082 C 38.696 162.590,39.155 163.049,40.663 163.223 C 42.155 163.394,42.583 163.812,42.583 165.096 C 42.583 166.363,43.031 166.816,44.503 167.039 L 46.422 167.330 44.503 167.435 C 42.902 167.522,42.581 167.858,42.573 169.459 C 42.557 172.760,41.807 174.432,40.243 174.655 C 38.915 174.845,38.719 175.377,38.533 179.318 C 38.333 183.566,37.373 185.689,35.652 185.689 C 35.148 185.689,34.904 189.763,34.904 198.179 L 34.904 210.669 36.649 211.107 C 37.924 211.427,38.394 212.012,38.394 213.277 C 38.394 214.655,38.748 215.009,40.126 215.009 C 41.391 215.009,41.976 215.479,42.296 216.754 C 42.689 218.318,43.089 218.499,46.149 218.499 C 49.326 218.499,49.564 218.621,49.564 220.244 L 49.564 221.990 60.335 221.990 C 70.975 221.990,71.110 221.970,71.330 220.419 C 71.538 218.959,71.987 218.822,77.717 218.479 C 83.224 218.149,84.021 217.926,85.205 216.385 L 86.531 214.660 86.546 216.579 C 86.559 218.158,86.872 218.499,88.307 218.499 C 89.703 218.499,90.052 218.848,90.052 220.244 C 90.052 221.640,90.401 221.990,91.798 221.990 C 93.173 221.990,93.543 222.344,93.543 223.660 C 93.543 225.894,94.567 226.178,102.618 226.178 C 110.669 226.178,111.693 225.894,111.693 223.660 C 111.693 222.101,111.948 221.990,115.532 221.990 C 119.116 221.990,119.372 222.101,119.372 223.659 C 119.372 224.845,119.863 225.452,121.069 225.754 C 122.113 226.017,122.851 226.773,122.988 227.721 C 123.129 228.695,123.853 229.412,124.956 229.668 C 126.060 229.925,126.784 230.641,126.925 231.617 C 127.077 232.671,127.632 233.159,128.679 233.159 C 129.597 233.159,130.486 233.788,130.899 234.729 C 131.431 235.942,132.264 236.349,134.555 236.515 C 137.137 236.702,137.522 236.941,137.522 238.360 C 137.522 240.247,138.680 240.838,142.380 240.838 C 144.355 240.838,145.296 241.238,146.072 242.408 C 147.030 243.853,147.736 243.998,154.855 244.215 L 162.595 244.450 163.049 242.644 C 163.392 241.275,163.949 240.835,165.346 240.828 C 168.825 240.810,170.332 240.065,170.332 238.362 C 170.332 237.218,170.790 236.681,171.902 236.523 C 173.180 236.342,173.598 235.650,174.143 232.810 C 174.535 230.767,175.403 228.839,176.237 228.161 C 177.578 227.070,177.674 226.120,177.874 211.967 L 178.087 196.932 181.365 196.721 C 184.360 196.528,184.661 196.344,184.863 194.590 C 185.048 192.982,185.417 192.670,187.132 192.670 C 188.851 192.670,189.180 192.390,189.180 190.925 C 189.180 189.529,189.529 189.180,190.925 189.180 L 192.670 189.180 192.670 180.153 C 192.670 171.324,192.704 171.122,194.241 170.904 C 195.365 170.744,195.874 170.135,196.032 168.761 C 196.250 166.872,196.331 166.841,201.111 166.841 C 205.650 166.841,206.012 166.727,206.632 165.096 C 207.098 163.870,207.820 163.351,209.058 163.351 C 210.472 163.351,210.820 163.006,210.820 161.606 C 210.820 160.169,211.160 159.859,212.740 159.851 C 216.015 159.835,217.714 159.082,217.936 157.549 C 218.068 156.646,218.824 155.922,219.895 155.673 C 221.144 155.383,221.703 154.730,221.861 153.376 C 221.989 152.284,222.513 151.483,223.100 151.483 C 224.497 151.483,225.480 148.581,225.480 144.457 C 225.480 141.232,225.593 141.012,227.256 141.012 C 229.830 141.012,229.666 131.039,227.086 130.672 C 225.762 130.483,225.521 129.954,225.340 126.832 C 225.158 123.684,224.926 123.182,223.560 122.988 C 222.423 122.827,221.990 122.296,221.990 121.068 C 221.990 119.737,221.624 119.372,220.293 119.372 C 219.065 119.372,218.535 118.938,218.373 117.801 C 218.213 116.673,217.605 116.168,216.214 116.008 C 215.149 115.886,213.514 115.022,212.581 114.088 C 211.238 112.745,210.158 112.391,207.408 112.391 C 204.135 112.391,203.919 112.279,203.711 110.471 C 203.493 108.571,203.431 108.549,197.806 108.350 C 192.838 108.174,192.076 107.976,191.763 106.779 C 191.566 106.026,190.904 105.410,190.292 105.410 C 189.445 105.410,189.180 104.687,189.180 102.376 C 189.180 98.923,187.469 94.939,185.987 94.939 C 185.314 94.939,184.991 94.146,184.991 92.496 C 184.991 90.355,184.775 90.052,183.246 90.052 C 181.850 90.052,181.501 89.703,181.501 88.307 L 181.501 86.562 174.189 86.562 L 166.877 86.562 166.684 75.567 C 166.495 64.763,166.465 64.569,164.921 64.349 C 163.497 64.147,163.351 63.746,163.351 60.043 C 163.351 55.092,162.899 53.752,161.228 53.752 C 160.356 53.752,159.883 53.145,159.732 51.832 C 159.559 50.325,159.099 49.865,157.592 49.692 C 156.084 49.518,155.672 49.106,155.672 47.772 C 155.672 46.425,155.310 46.073,153.927 46.073 C 152.531 46.073,152.182 45.724,152.182 44.328 L 152.182 42.583 139.732 42.583 C 132.885 42.583,127.074 42.792,126.818 43.048 M328.098 97.622 L 324.956 98.080 324.757 105.236 C 324.575 111.791,324.445 112.391,323.200 112.391 C 322.333 112.391,321.683 113.023,321.404 114.136 C 321.013 115.694,320.606 115.881,317.619 115.881 L 314.273 115.881 313.793 120.019 C 313.496 122.577,312.937 124.301,312.328 124.535 C 310.839 125.106,311.123 128.279,312.740 129.145 C 313.654 129.634,314.136 130.607,314.136 131.962 L 314.136 134.031 319.640 134.031 L 325.144 134.031 325.108 137.347 C 325.061 141.605,325.742 143.627,327.400 144.154 C 328.438 144.483,328.771 145.363,328.935 148.203 L 329.145 151.832 335.951 152.032 L 342.757 152.232 342.757 150.462 C 342.757 149.060,343.105 148.691,344.428 148.691 C 346.319 148.691,346.946 147.546,346.946 144.096 L 346.946 141.710 356.021 141.710 L 365.096 141.710 365.096 132.711 L 365.096 123.712 363.351 123.274 C 360.995 122.682,360.861 119.575,363.176 119.246 C 364.673 119.033,364.756 118.687,364.946 111.867 L 365.145 104.712 363.424 104.712 C 362.170 104.712,361.642 104.285,361.480 103.141 C 361.115 100.575,351.355 100.408,348.965 102.927 C 346.936 105.066,346.248 105.160,346.248 103.299 C 346.248 102.433,345.571 101.628,344.503 101.222 C 343.434 100.815,342.757 100.010,342.757 99.145 C 342.757 98.126,342.299 97.731,341.115 97.731 C 340.211 97.731,337.619 97.603,335.355 97.447 C 333.091 97.291,329.825 97.369,328.098 97.622 M284.405 183.944 C 284.091 185.197,283.496 185.689,282.298 185.689 C 280.982 185.689,280.628 186.059,280.628 187.435 C 280.628 188.831,280.279 189.180,278.883 189.180 C 277.415 189.180,277.138 189.508,277.138 191.242 C 277.138 193.757,274.271 196.859,271.946 196.859 C 270.785 196.859,270.182 197.362,269.874 198.590 L 269.439 200.321 254.964 200.509 C 241.020 200.691,240.481 200.750,240.286 202.115 C 240.174 202.895,239.389 203.837,238.540 204.210 C 236.135 205.266,236.160 218.031,238.569 218.373 C 239.915 218.564,240.140 219.018,240.140 221.549 C 240.140 224.720,241.063 226.178,243.072 226.178 C 243.946 226.178,244.328 226.708,244.328 227.923 C 244.328 229.319,244.677 229.668,246.073 229.668 L 247.818 229.668 247.818 236.998 L 247.818 244.328 246.073 244.328 C 244.423 244.328,244.328 244.538,244.328 248.168 C 244.328 251.503,244.150 252.007,242.973 252.007 C 239.870 252.007,239.424 260.811,242.408 263.162 C 243.920 264.352,244.328 265.256,244.328 267.415 L 244.328 270.157 256.108 270.157 C 269.912 270.157,272.284 269.820,272.828 267.782 C 273.197 266.403,273.244 266.419,273.636 268.063 C 273.997 269.576,274.490 269.836,277.347 270.021 C 280.721 270.239,283.531 272.165,285.182 275.393 C 285.690 276.384,286.739 276.850,288.804 277.001 C 291.380 277.190,291.737 277.429,291.929 279.096 L 292.147 280.977 301.047 281.173 L 309.948 281.368 309.948 279.253 C 309.948 277.462,310.215 277.138,311.693 277.138 L 313.438 277.138 313.438 266.364 L 313.438 255.590 315.358 255.369 C 317.145 255.164,317.292 254.899,317.487 251.520 L 317.697 247.892 320.978 247.681 C 323.771 247.501,324.291 247.236,324.481 245.899 C 324.675 244.539,325.121 244.328,327.812 244.328 C 330.432 244.328,331.042 244.060,331.699 242.619 C 332.127 241.679,333.141 240.815,333.953 240.699 C 334.976 240.553,335.495 239.901,335.648 238.569 C 335.800 237.256,336.272 236.649,337.144 236.649 C 340.082 236.649,340.440 223.133,337.522 222.401 C 336.247 222.081,335.777 221.496,335.777 220.231 C 335.777 218.862,335.421 218.499,334.080 218.499 C 332.852 218.499,332.322 218.065,332.160 216.928 C 331.966 215.563,331.464 215.330,328.316 215.148 C 325.195 214.968,324.665 214.727,324.477 213.403 C 324.276 211.993,323.817 211.851,318.848 211.663 L 313.438 211.460 313.438 209.395 C 313.438 207.658,313.161 207.330,311.693 207.330 C 309.948 207.330,309.948 207.327,309.948 200.394 C 309.948 192.979,309.232 189.878,307.522 189.878 C 306.814 189.878,306.457 189.203,306.457 187.865 C 306.457 186.415,306.052 185.746,305.009 185.474 C 304.213 185.265,303.391 184.443,303.183 183.647 C 302.824 182.276,302.324 182.199,293.824 182.199 L 284.843 182.199 284.405 183.944 " stroke="none" fill="#000000" fill-rule="evenodd"></path></g></svg>