<?xml version="1.0" encoding="utf-8"?>
<!-- Generator: Adobe Illustrator 16.0.2, SVG Export Plug-In . SVG Version: 6.00 Build 0)  -->
<!DOCTYPE svg PUBLIC "-//W3C//DTD SVG 1.1//EN" "http://www.w3.org/Graphics/SVG/1.1/DTD/svg11.dtd">
<svg version="1.1" id="Шар_1" xmlns="http://www.w3.org/2000/svg" xmlns:xlink="http://www.w3.org/1999/xlink" x="0px" y="0px"
	 width="12.812px" height="7.829px" viewBox="0 0 12.812 7.829" enable-background="new 0 0 12.812 7.829" xml:space="preserve">
<g>
	<defs>
		<rect id="SVGID_1_" width="12.812" height="7.829"/>
	</defs>
	<clipPath id="SVGID_2_">
		<use xlink:href="#SVGID_1_"  overflow="visible"/>
	</clipPath>
	<path clip-path="url(#SVGID_2_)" fill-rule="evenodd" clip-rule="evenodd" fill="#ffffff" d="M11.835,1.054H7.642v0.74
		c0.313,0.215,0.574,0.51,0.762,0.857c0.199,0.371,0.314,0.803,0.314,1.263c0,0.46-0.115,0.892-0.314,1.264
		C8.216,5.525,7.954,5.819,7.642,6.035v0.74h4.193V1.054z M0.443,0H5.34h2.131h4.896c0.122,0,0.233,0.049,0.313,0.13
		c0.081,0.08,0.131,0.191,0.131,0.313v6.942c0,0.123-0.05,0.232-0.131,0.313c-0.002,0.003-0.005,0.005-0.008,0.007
		c-0.079,0.076-0.188,0.123-0.306,0.123H7.472H5.34H0.443c-0.121,0-0.233-0.05-0.313-0.13V7.698C0.049,7.618,0,7.507,0,7.386V0.443
		C0,0.321,0.049,0.21,0.13,0.13C0.21,0.049,0.321,0,0.443,0 M12.368,0.253c0.052,0,0.101,0.021,0.135,0.056
		c0.033,0.034,0.056,0.082,0.056,0.134v6.942c0,0.052-0.022,0.1-0.056,0.135l-0.005,0.005c-0.034,0.031-0.08,0.051-0.13,0.051h-4.77
		V7.028h4.363c0.07,0,0.126-0.056,0.126-0.127V0.927c0-0.07-0.056-0.127-0.126-0.127H7.599V0.253H12.368z M5.213,0.253h-4.77
		c-0.052,0-0.099,0.021-0.134,0.056V0.308C0.275,0.343,0.253,0.391,0.253,0.443v6.942c0,0.052,0.022,0.1,0.056,0.135
		c0.034,0.034,0.082,0.056,0.134,0.056h4.77V7.028H0.849c-0.07,0-0.126-0.056-0.126-0.127V0.927c0-0.07,0.056-0.127,0.126-0.127
		h4.364V0.253z M6.532,0.253v7.323h0.813V5.994v-4.16V0.253H6.532z M6.279,7.576V0.253H5.467v1.581v4.16v1.582H6.279z M10.605,3.437
		c0.132,0,0.253,0.054,0.339,0.141c0.087,0.087,0.141,0.207,0.141,0.339c0,0.132-0.054,0.252-0.141,0.34
		c-0.086,0.086-0.207,0.14-0.339,0.14c-0.133,0-0.253-0.054-0.34-0.14l-0.009-0.009c-0.081-0.086-0.133-0.203-0.133-0.331
		c0-0.132,0.056-0.252,0.142-0.339C10.353,3.49,10.473,3.437,10.605,3.437 M10.766,3.756c0.041,0.041,0.066,0.097,0.066,0.16
		c0,0.064-0.025,0.12-0.066,0.16v0.001V4.076c-0.041,0.042-0.099,0.067-0.16,0.067c-0.063,0-0.12-0.025-0.161-0.067l-0.005-0.005
		c-0.037-0.04-0.062-0.094-0.062-0.155c0-0.063,0.026-0.119,0.066-0.16c0.041-0.041,0.098-0.067,0.161-0.067
		C10.667,3.689,10.725,3.715,10.766,3.756 M2.208,3.437c-0.128,0-0.245,0.051-0.332,0.133L1.867,3.577
		C1.781,3.664,1.726,3.784,1.726,3.917c0,0.132,0.054,0.251,0.141,0.339v0.001h0.001c0.087,0.087,0.207,0.14,0.339,0.14
		c0.132,0,0.253-0.054,0.339-0.14c0.087-0.087,0.141-0.207,0.141-0.34c0-0.132-0.054-0.252-0.141-0.339S2.339,3.437,2.208,3.437
		 M2.367,3.755c-0.041-0.04-0.097-0.066-0.16-0.066c-0.06,0-0.115,0.024-0.155,0.061L2.047,3.756
		c-0.042,0.041-0.066,0.097-0.066,0.16c0,0.064,0.024,0.12,0.065,0.16l0.001,0.001c0.04,0.041,0.097,0.066,0.16,0.066
		s0.119-0.025,0.16-0.067c0.041-0.041,0.066-0.097,0.066-0.16S2.408,3.797,2.367,3.755L2.367,3.755z M1.867,4.255l0.001-0.179
		C1.819,4.125,1.818,4.205,1.867,4.255 M1.458,6.174h1.499c0.071,0,0.127-0.056,0.127-0.126S3.027,5.921,2.957,5.921H1.458
		c-0.07,0-0.127,0.057-0.127,0.127S1.387,6.174,1.458,6.174 M9.855,6.174c-0.07,0-0.127-0.056-0.127-0.126s0.057-0.127,0.127-0.127
		h1.499c0.069,0,0.127,0.057,0.127,0.127s-0.058,0.126-0.127,0.126H9.855z M9.855,1.908c-0.07,0-0.127-0.057-0.127-0.127
		s0.057-0.127,0.127-0.127h1.499c0.069,0,0.127,0.057,0.127,0.127s-0.058,0.127-0.127,0.127H9.855z M1.458,1.908h1.499
		c0.071,0,0.127-0.057,0.127-0.127S3.027,1.654,2.957,1.654H1.458c-0.07,0-0.127,0.057-0.127,0.127S1.387,1.908,1.458,1.908
		 M7.642,2.11c0.217,0.179,0.399,0.403,0.539,0.661c0.18,0.334,0.283,0.725,0.283,1.143c0,0.418-0.104,0.809-0.284,1.145
		C8.041,5.315,7.858,5.54,7.642,5.719V2.11z M5.17,2.11c-0.216,0.179-0.4,0.403-0.538,0.661c-0.18,0.334-0.284,0.726-0.284,1.143
		c0,0.418,0.104,0.809,0.284,1.145C4.771,5.315,4.954,5.54,5.17,5.719V2.11z M4.409,2.651C4.596,2.303,4.858,2.009,5.17,1.793V1.054
		H0.976v5.721H5.17v-0.74C4.858,5.82,4.596,5.525,4.409,5.178c-0.2-0.372-0.314-0.803-0.314-1.264
		C4.095,3.454,4.209,3.022,4.409,2.651"/>
</g>
</svg>
