<?xml version="1.0" encoding="utf-8"?>
<!-- Generator: Adobe Illustrator 16.0.2, SVG Export Plug-In . SVG Version: 6.00 Build 0)  -->
<!DOCTYPE svg PUBLIC "-//W3C//DTD SVG 1.1//EN" "http://www.w3.org/Graphics/SVG/1.1/DTD/svg11.dtd">
<svg version="1.1" id="Шар_1" xmlns="http://www.w3.org/2000/svg" xmlns:xlink="http://www.w3.org/1999/xlink" x="0px" y="0px"
	 width="50px" height="52px" viewBox="0 0 22.017 24.284" enable-background="new 0 0 22.017 24.284" xml:space="preserve">
<g>
	<defs>
		<rect id="SVGID_1_" width="22.017" height="52"/>
	</defs>
	<clipPath id="SVGID_2_">
		<use xlink:href="#SVGID_1_"  overflow="visible"/>
	</clipPath>
	<path clip-path="url(#SVGID_2_)" fill-rule="evenodd" clip-rule="evenodd" fill="#ffffff" d="M7.547,22.452h6.924V20.1v-2.509
		v-1.876V8.071c0-0.097-0.04-0.187-0.104-0.251c-0.066-0.066-0.155-0.105-0.254-0.105h-0.878H8.782H7.904
		c-0.099,0-0.189,0.039-0.253,0.105L7.642,7.828c-0.059,0.064-0.095,0.15-0.095,0.243v2.816v1.725v0.595v1.876v2.508V20.1V22.452z
		 M0.238,22.452h2.457v-9.245c0-0.228,0.094-0.437,0.244-0.588H2.94H2.938c0.151-0.152,0.36-0.245,0.59-0.245h0.659v-1.487
		c0-0.131,0.105-0.238,0.237-0.238H7.07V8.071c0-0.221,0.088-0.424,0.231-0.572C7.305,7.492,7.31,7.487,7.315,7.482
		c0.151-0.15,0.359-0.245,0.589-0.245h0.64V5.372c0-0.132,0.107-0.239,0.238-0.239H9.72V3.268c0-0.132,0.107-0.239,0.238-0.239
		h0.812V0.238C10.77,0.107,10.878,0,11.009,0s0.237,0.107,0.237,0.238v2.791h0.813c0.131,0,0.239,0.107,0.239,0.239v1.865h0.938
		c0.132,0,0.238,0.107,0.238,0.239v1.865h0.64c0.229,0,0.438,0.095,0.59,0.245c0.15,0.151,0.243,0.36,0.243,0.589v6.891
		c0.109-0.051,0.23-0.081,0.357-0.081h3.23c0.229,0,0.438,0.094,0.589,0.245c0.15,0.151,0.245,0.36,0.245,0.589v6.737h2.409
		c0.134,0,0.239,0.106,0.239,0.239v1.354c0,0.133-0.105,0.239-0.239,0.239H0.238C0.107,24.284,0,24.178,0,24.045v-1.354
		C0,22.559,0.107,22.452,0.238,22.452 M21.541,22.928H19.13h-4.42H7.308H2.933H0.476v0.88h21.065V22.928z M9.414,12.812
		c-0.131,0-0.238-0.107-0.238-0.238c0-0.132,0.107-0.239,0.238-0.239h3.19c0.132,0,0.238,0.107,0.238,0.239
		c0,0.131-0.106,0.238-0.238,0.238H9.414z M9.414,10.305c-0.131,0-0.238-0.106-0.238-0.238c0-0.131,0.107-0.238,0.238-0.238h3.19
		c0.132,0,0.238,0.107,0.238,0.238c0,0.132-0.106,0.238-0.238,0.238H9.414z M9.414,20.338c-0.131,0-0.238-0.106-0.238-0.239
		c0-0.131,0.107-0.237,0.238-0.237h3.19c0.132,0,0.238,0.106,0.238,0.237c0,0.133-0.106,0.239-0.238,0.239H9.414z M9.414,17.828
		c-0.131,0-0.238-0.106-0.238-0.238c0-0.131,0.107-0.238,0.238-0.238h3.19c0.132,0,0.238,0.107,0.238,0.238
		c0,0.132-0.106,0.238-0.238,0.238H9.414z M9.414,15.321c-0.131,0-0.238-0.106-0.238-0.238s0.107-0.238,0.238-0.238h3.19
		c0.132,0,0.238,0.106,0.238,0.238s-0.106,0.238-0.238,0.238H9.414z M14.946,19.861h2.306c0.131,0,0.237,0.106,0.237,0.238
		s-0.106,0.238-0.237,0.238h-2.306v2.114h3.945v-6.737c0-0.098-0.04-0.188-0.104-0.251c-0.066-0.065-0.154-0.104-0.253-0.104h-3.23
		c-0.097,0-0.187,0.039-0.252,0.104v-0.001c-0.064,0.063-0.104,0.15-0.105,0.247v1.642h2.306c0.131,0,0.237,0.107,0.237,0.239
		c0,0.131-0.106,0.237-0.237,0.237h-2.306V19.861z M4.425,20.338c-0.132,0-0.237-0.106-0.237-0.238s0.105-0.238,0.237-0.238H7.07
		v-2.033H4.425c-0.132,0-0.237-0.106-0.237-0.237c0-0.132,0.105-0.239,0.237-0.239H7.07v-2.03H4.425
		c-0.132,0-0.237-0.106-0.237-0.238s0.105-0.237,0.237-0.237H7.07v-1.643c-0.001-0.096-0.041-0.184-0.105-0.248
		c-0.063-0.064-0.151-0.103-0.248-0.105H6.713H4.425H3.529c-0.099,0-0.188,0.041-0.252,0.105H3.276
		c-0.065,0.065-0.104,0.154-0.104,0.252v9.245H7.07v-2.114H4.425z M7.07,11.125H4.663v1.249h2.05h0.005H7.07V11.125z M11.82,5.133
		V3.506h-0.812h-0.812v1.627H11.82z M12.997,5.61h-0.938H9.958H9.02v1.627h3.978V5.61z"/>
</g>
</svg>
